<?xml version="1.0" standalone="no"?>
<!DOCTYPE svg PUBLIC "-//W3C//DTD SVG 20010904//EN"
 "http://www.w3.org/TR/2001/REC-SVG-20010904/DTD/svg10.dtd">
<svg version="1.0" xmlns="http://www.w3.org/2000/svg"
 width="700.000000pt" height="700.000000pt" viewBox="0 0 700.000000 700.000000"
 preserveAspectRatio="xMidYMid meet">
<metadata>
Created by potrace 1.14, written by Peter Selinger 2001-2017
</metadata>
<g transform="translate(0.000000,700.000000) scale(0.100000,-0.100000)"
fill="#000000" stroke="none">
<path d="M2648 6989 c-494 -55 -905 -193 -1289 -436 -366 -230 -697 -563 -921
-925 -235 -380 -378 -805 -426 -1258 -17 -171 -5 -563 22 -715 3 -16 8 -48 12
-70 5 -32 24 -120 49 -225 50 -206 178 -517 297 -718 42 -72 155 -246 180
-277 4 -5 29 -37 55 -70 92 -116 275 -310 345 -366 l36 -29 12 57 c19 93 67
230 119 338 140 293 352 525 646 702 73 44 239 115 340 146 70 22 205 50 211
45 2 -3 -2 -34 -11 -69 -8 -36 -17 -82 -21 -103 -3 -21 -7 -48 -10 -60 -20
-102 -26 -476 -10 -581 4 -27 10 -63 12 -80 12 -78 18 -108 45 -211 73 -285
200 -549 380 -790 l79 -106 -93 7 c-83 5 -251 27 -317 40 -292 58 -499 126
-745 246 -224 109 -365 197 -537 335 -51 41 -96 74 -99 74 -3 0 -6 -6 -6 -12
-1 -7 -4 -29 -7 -48 -14 -76 -13 -356 0 -450 108 -726 676 -1278 1409 -1369
68 -9 350 -7 390 2 11 2 43 8 70 11 77 11 279 73 369 114 170 76 338 190 465
313 l63 61 -89 38 c-220 92 -446 235 -632 399 -78 69 -210 202 -223 224 -6 11
14 14 95 14 100 0 277 9 327 17 14 2 48 7 75 11 28 3 82 13 120 20 39 8 81 16
95 19 145 26 568 173 627 218 15 12 34 2 28 -15 -2 -7 -7 -34 -9 -62 -25 -262
-159 -570 -355 -814 l-52 -65 27 -14 c78 -41 372 -112 569 -137 109 -14 477
-14 555 -1 19 4 67 11 105 17 39 6 126 24 195 41 928 228 1624 979 1756 1893
3 22 8 51 11 65 9 44 11 402 2 470 -16 133 -19 152 -24 173 -3 12 -7 33 -9 47
-2 14 -9 45 -16 70 -7 25 -13 52 -15 61 -26 133 -204 538 -272 620 -13 15 -23
30 -23 34 0 9 -135 190 -179 240 -43 48 -181 186 -237 236 -103 93 -408 299
-442 299 -6 0 -7 -13 -2 -37 9 -39 14 -72 29 -208 52 -466 -28 -985 -219
-1430 -262 -612 -706 -1097 -1303 -1424 -43 -24 -80 -41 -81 -40 -2 2 -6 76
-9 164 -12 366 -132 688 -361 970 -231 285 -618 512 -956 560 -25 4 -65 11
-90 15 -48 10 -369 7 -409 -3 -22 -6 -23 -4 -16 31 4 20 27 93 52 161 82 227
195 429 348 626 68 88 244 270 315 327 25 20 65 52 90 72 25 20 50 41 57 46
18 15 154 102 198 128 189 108 486 228 635 256 14 3 68 14 120 25 315 66 675
60 1005 -15 168 -38 393 -117 527 -185 l60 -30 -7 33 c-82 414 -268 826 -526
1168 -151 200 -296 349 -521 537 -47 39 -222 158 -308 210 -78 47 -302 163
-314 163 -3 0 -31 12 -63 26 -56 26 -270 102 -307 110 -10 2 -42 10 -70 18
-58 16 -231 52 -291 61 -22 3 -56 7 -75 10 -19 3 -53 7 -75 11 -63 9 -483 11
-557 3z"/>
</g>
</svg>
