<?xml version="1.0" standalone="no"?>
<!DOCTYPE svg PUBLIC "-//W3C//DTD SVG 20010904//EN"
 "http://www.w3.org/TR/2001/REC-SVG-20010904/DTD/svg10.dtd">
<svg version="1.0" xmlns="http://www.w3.org/2000/svg"
 width="512.000000pt" height="512.000000pt" viewBox="0 0 512.000000 512.000000"
 preserveAspectRatio="xMidYMid meet">
<metadata>
Created by potrace 1.11, written by Peter Selinger 2001-2013
</metadata>
<g transform="translate(0.000000,512.000000) scale(0.100000,-0.100000)"
fill="#000000" stroke="none">
<path d="M3007 4844 c-1 -1 -33 -4 -72 -8 -93 -8 -129 -14 -195 -33 -303 -85
-555 -291 -692 -565 -22 -44 -41 -85 -42 -91 -1 -7 -4 -16 -8 -22 -3 -5 -12
-30 -19 -55 -14 -50 -13 -45 -28 -114 -9 -39 -22 -57 -63 -95 -141 -125 -239
-279 -292 -459 -22 -73 -41 -188 -38 -234 1 -16 -11 -18 -111 -20 -218 -3
-343 -25 -525 -95 -305 -116 -548 -322 -729 -618 -78 -128 -146 -320 -177
-499 -16 -91 -19 -337 -5 -416 5 -30 12 -73 15 -95 10 -69 81 -272 125 -358
66 -128 165 -263 264 -362 106 -106 124 -121 220 -186 198 -132 435 -217 665
-236 380 -32 729 71 1035 307 10 8 63 58 116 110 l96 95 69 -41 c149 -87 271
-119 449 -117 97 1 137 6 208 27 106 31 193 74 267 131 32 24 64 40 75 39 163
-28 293 -23 440 16 190 50 387 186 500 345 41 57 114 190 119 217 2 7 8 25 14
40 17 41 40 166 46 247 4 54 11 80 25 95 10 12 30 34 44 49 41 46 122 167 160
242 79 153 103 225 143 420 11 54 13 328 3 395 -26 178 -90 359 -182 514 -32
52 -63 101 -70 108 -6 7 -28 33 -48 58 -149 185 -360 331 -603 416 l-119 41
-18 57 c-77 241 -300 507 -512 611 -29 14 -59 30 -67 34 -45 26 -158 63 -243
81 -48 10 -234 29 -240 24z m-192 -124 c-3 -5 -12 -10 -18 -10 -7 0 -6 4 3 10
19 12 23 12 15 0z m390 -8 c-3 -3 -11 0 -18 7 -9 10 -8 11 6 5 10 -3 15 -9 12
-12z m-240 -61 c3 -5 2 -12 -3 -15 -5 -3 -9 1 -9 9 0 17 3 19 12 6z m240 -99
c-3 -3 -11 0 -18 7 -9 10 -8 11 6 5 10 -3 15 -9 12 -12z m399 2 c3 -8 2 -12
-4 -9 -6 3 -10 10 -10 16 0 14 7 11 14 -7z m-1880 -1352 c3 -5 -1 -9 -9 -9 -8
0 -12 4 -9 9 3 4 7 8 9 8 2 0 6 -4 9 -8z m-354 -146 c0 -2 -8 -10 -17 -17 -16
-13 -17 -12 -4 4 13 16 21 21 21 13z m-166 -22 c3 -8 2 -12 -4 -9 -6 3 -10 10
-10 16 0 14 7 11 14 -7z m-233 -71 c13 -16 12 -17 -3 -4 -10 7 -18 15 -18 17
0 8 8 3 21 -13z m2877 -248 c-3 -3 -9 2 -12 12 -6 14 -5 15 5 6 7 -7 10 -15 7
-18z m557 16 c3 -5 2 -12 -3 -15 -5 -3 -9 1 -9 9 0 17 3 19 12 6z m-234 -88
c13 -16 12 -17 -3 -4 -17 13 -22 21 -14 21 2 0 10 -8 17 -17z m879 13 c0 -2
-8 -10 -17 -17 -16 -13 -17 -12 -4 4 13 16 21 21 21 13z m-396 -14 c3 -5 -1
-9 -9 -9 -8 0 -12 4 -9 9 3 4 7 8 9 8 2 0 6 -4 9 -8z m236 -402 c0 -5 -5 -10
-11 -10 -5 0 -7 5 -4 10 3 6 8 10 11 10 2 0 4 -4 4 -10z m-4726 -46 c3 -8 2
-12 -4 -9 -6 3 -10 10 -10 16 0 14 7 11 14 -7z m723 -439 c0 -8 -4 -12 -9 -9
-5 3 -6 10 -3 15 9 13 12 11 12 -6z m-236 -72 c13 -16 12 -17 -3 -4 -10 7 -18
15 -18 17 0 8 8 3 21 -13z m0 -160 c13 -16 12 -17 -3 -4 -10 7 -18 15 -18 17
0 8 8 3 21 -13z m394 -402 c3 -5 2 -12 -3 -15 -5 -3 -9 1 -9 9 0 17 3 19 12 6z
m1845 -77 c0 -8 -19 -13 -24 -6 -3 5 1 9 9 9 8 0 15 -2 15 -3z m-2409 -171
c13 -16 12 -17 -3 -4 -10 7 -18 15 -18 17 0 8 8 3 21 -13z"/>
</g>
</svg>
