<?xml version="1.0" encoding="UTF-8" standalone="no"?>
<!-- Created with Inkscape (http://www.inkscape.org/) -->

<svg
   version="1.1"
   id="svg1"
   width="180"
   height="180"
   viewBox="0 0 180 180"
   xml:space="preserve"
   xmlns="http://www.w3.org/2000/svg"
   xmlns:svg="http://www.w3.org/2000/svg"><defs
     id="defs1" /><g
     id="g1"
     transform="translate(-219.73251,-183.81705)"><g
       id="g18"
       transform="translate(-173.39035,-25.529842)"><path
         id="path11"
         d="m 399.62666,344.18134 0.003,-0.003 c -0.004,-0.004 -0.003,0.003 -0.003,0.003"
         style="fill:#040606;fill-opacity:1;fill-rule:nonzero;stroke:none;stroke-width:0.133333" /><path
         id="path12"
         d="m 530.27065,371.43467 v 0.17734 c 0.005,-0.0147 -0.008,-0.0587 0,-0.17734 z m 0.24534,-1.524 c 0.003,0.001 -0.007,-0.003 -0.007,-0.003 10e-4,10e-4 10e-4,0.012 0.007,0.003 z m -17.42934,12.61334 c -0.003,0.003 -0.007,0.004 -0.008,0.005 v -0.0747 c 0,0 0.008,0.007 0.0173,0.028 0.003,0.012 0.003,0.028 -0.009,0.0413 z m 49.52134,-40.24134 c -0.59334,-0.74 -1.55734,-1.11866 -2.64267,-1.38266 -1.1,-0.26534 -2.392,-0.39867 -3.85067,-0.46534 -0.71066,-0.052 -1.548,0.004 -2.18,-0.12 -0.34933,-0.0667 -0.704,-0.13466 -1.072,-0.20533 -0.35866,-0.0627 -0.728,-0.12667 -1.13866,-0.26667 -0.824,-0.24933 -1.68267,-0.508 -2.572,-0.77466 -0.47734,-0.13067 -0.91067,-0.304 -1.44667,-0.40534 -0.536,-0.10133 -1.08133,-0.20266 -1.636,-0.30533 -1.11067,-0.23333 -2.628,-0.028 -3.51867,0.116 -0.952,0.11067 -1.084,0.036 -1.784,-0.37333 -0.87066,-0.52667 -1.668,-1.10534 -2.6,-1.78 -0.92266,-0.66534 -2.02133,-1.42667 -3.288,-1.97467 -0.304,-0.152 -0.632,-0.25333 -0.952,-0.38 l -0.472,-0.18 -0.31333,-0.13067 c -0.42133,-0.14933 -0.82,-0.37733 -1.22267,-0.58666 -0.79866,-0.47334 -1.60133,-1.092 -2.47866,-1.79867 l -1.37334,-1.10533 c -0.476,-0.36134 -0.89066,-0.70134 -1.56,-1.13067 -0.612,-0.41067 -1.21733,-0.824 -1.95466,-1.092 l -1.06934,-0.436 c -0.35866,-0.104 -0.72533,-0.18133 -1.08666,-0.268 -2.944,-0.65067 -5.568,-0.292 -7.75867,-0.06 -1.1,0.12133 -2.11067,0.26533 -3.036,0.27333 -0.93067,0.0453 -1.84,0.092 -2.82267,0.0627 -0.98266,-0.0133 -1.93866,-0.0253 -2.86133,-0.0373 -0.41867,-0.007 -0.83067,-0.0133 -1.24133,-0.016 0.78266,-4.496 1.97466,-9.01734 5.08533,-12.73734 8.56667,-10.24266 11.47333,-22.13333 10.608,-34.33333 -0.412,-1.29333 -0.94133,-2.40667 -1.468,-3.43333 -0.608,-1.12 -1.208,-2.21734 -1.78667,-3.28534 -0.61066,-1.14933 -1.152,-2.28533 -1.828,-3.32266 -0.32133,-0.51867 -0.628,-1.04534 -0.94933,-1.536 -0.332,-0.484 -0.656,-0.96134 -0.97467,-1.42667 -1.58,-2.268 -3.06,-4.20666 -4.312,-5.83866 -0.0253,-0.0867 -0.048,-0.16534 -0.0747,-0.25067 -1.53334,-1.596 -2.55467,-3.212 -1.45867,-4.18267 1.18,-1.04666 3.11067,-0.368 4.532,-0.464 1.96133,-0.132 3.788,-0.16933 5.58533,0.428 0.13067,-0.0107 0.23467,-0.016 0.29734,-0.016 0.78533,0 5.88933,2.73734 5.88933,2.73734 l 2.41733,1.73333 c 0.828,0.336 1.688,0.564 2.576,0.64133 0.31334,0.0267 0.704,0.024 1.10667,0.0427 0.43467,-0.30267 0.89467,-0.62 1.25867,-0.86933 1.024,0.33733 2.456,0.836 2.456,0.836 l 0.39066,3.25733 1.62934,0.38933 c -0.76534,-1.61333 -1.02934,-3.584 -0.51067,-5.17466 l -2.63733,-0.584 c 0.66533,-0.91067 1.51866,-2.21067 1.51866,-2.21067 l 0.76,-1.99333 c 0.007,-0.0413 0.009,-0.0813 0.0253,-0.12267 0.24666,-0.804 0.58266,-2.61067 1.348,-3.06933 0.63066,-0.37334 1.55333,-0.30667 2.24533,-0.24134 0.90533,0.0853 1.82667,0.31334 2.692,0.668 0.79067,0.064 1.57733,0.0213 2.264,-0.29066 1.02933,-0.724 2.06933,-1.43467 3.12,-2.12267 0.04,-0.17333 0.14,-0.344 0.31867,-0.49467 0.42933,-0.36 0.87333,-0.68533 1.324,-0.996 0.17466,-0.15733 0.34133,-0.32 0.52133,-0.46933 0,-0.0387 0,-0.076 0,-0.11733 -0.007,-0.0707 -0.0373,-0.20267 -0.0973,-0.32 -0.0627,0 -0.18134,-0.007 -0.19734,-0.007 -1.14533,0.97867 -2.51733,1.65333 -3.83866,2.37733 -1.112,0.768 -2.056,1.47067 -2.11067,1.65067 -1.588,-0.0413 -3.49733,-0.50933 -3.49733,-0.50933 l -1.49867,-0.11734 2.94133,-1.69866 c -0.0467,-0.108 -0.036,-0.23467 0.088,-0.332 0.64667,-0.52 1.27867,-1.06267 1.94134,-1.564 -0.128,-0.11867 -0.264,-0.21467 -0.30667,-0.24267 -1.05467,1.08133 -2.328,1.94933 -3.66667,2.47733 -1.79866,0.70934 -3.48933,0.98934 -4.16,3.28134 -0.19333,0.65866 -0.348,1.484 -0.70266,2.08133 -0.0773,0.132 -0.16667,0.256 -0.252,0.38133 -0.0293,0.22534 -0.0453,0.364 -0.0453,0.364 l -0.87866,0.77734 c -0.828,0.89066 -1.752,1.67333 -2.50534,2.68133 -0.37066,0.492 -1.05733,0.70933 -1.54,0.21733 -0.0307,-0.005 -0.06,-0.007 -0.0907,-0.0147 -2.11334,-0.50667 -4.616,-1.39067 -6.216,-3.036 -0.988,-0.35334 -1.984,-0.69734 -2.96134,-1.06934 -2.552,-0.484 -5.136,-0.828 -7.37733,-1.58933 -2.272,-0.77333 -1.88,-3.29867 -1.32667,-5.34 -0.0293,-3.604 2.72934,-5.12667 5.91734,-6.288 0.22,-0.10933 0.39466,-0.18667 0.48933,-0.20667 0.0413,-0.008 0.092,-0.0147 0.15067,-0.02 1.64533,-0.572 3.36533,-1.08133 4.84266,-1.75466 0.10534,-0.168 0.20534,-0.35334 0.29867,-0.56267 0.77733,-1.712 1.252,-3.536 1.76667,-5.344 0.24133,-0.844 0.548,-1.97067 1.37333,-2.444 0.94667,-0.544 2.42933,-0.648 2.61733,-1.716 l -0.71066,-0.52667 c 0,0 -4.05467,2.26267 -3.664,2.24934 0.39333,-0.0107 -2.35334,6.66 -2.35334,6.66 0,0 -1.59466,0.4 -3.36266,0.84 -2.852,1.08666 -5.24134,2.84533 -7.48,4.87733 -0.86667,1.27467 -1.58667,2.416 -1.58667,2.52933 0,0.18667 -0.652,3.876 -1.03467,6.03734 l -4.91066,2.448 -0.152,-0.11067 c -0.072,0.0293 -0.14,0.0573 -0.212,0.0853 -0.292,0.11734 -0.77067,-0.007 -0.96667,-0.25733 -0.352,-0.45867 -0.676,-0.90133 -0.96267,-1.344 l -0.0347,-0.0227 -0.012,-0.0507 c -0.804,-1.256 -1.304,-2.532 -1.25734,-4.224 0.008,-0.16134 0.0267,-0.33467 0.04,-0.50134 l -0.052,-0.19866 0.084,-0.18667 c 0.26,-2.20533 1.21734,-4.90533 2.336,-6.624 0.77067,-1.184 1.628,-2.08 2.61467,-2.81867 l 1.45333,-1.47466 2.61734,-0.73334 c 1.956,-0.96666 3.624,-2.19866 5.11466,-3.736 0.12,-0.52933 0.17734,-1.10533 0.156,-1.75333 -0.184,-1.59067 -0.38533,-3.104 -0.50266,-3.28667 -0.0693,-0.104 -0.04,-0.57466 0.0427,-1.20933 -0.16933,-1.54667 -0.32,-3.09467 -0.392,-4.652 -0.72,0.18267 -1.48266,0.45867 -1.48266,0.808 0,0.66667 0.65333,9.708 0.65333,9.708 l -8.896,4.52133 -5.496,9.44267 c 0,0 -0.12933,2.82133 -0.11733,4.776 l -2.196,-1.55467 -0.13467,-0.22133 c -0.23467,-0.0467 -0.45867,-0.18533 -0.62267,-0.44667 -2.304,-3.66933 -4.69866,-8.65333 -4.616,-13.112 0.0293,-1.40933 0.22134,-2.80666 0.544,-4.18266 0.1,-1.23867 0.25734,-2.496 0.58134,-2.94534 0.24133,-0.33066 0.65333,-1.068 1.09066,-1.87866 0.43734,-0.95734 0.92667,-1.89467 1.452,-2.79867 0.11734,-0.23467 0.18934,-0.37733 0.18934,-0.37733 l -1.992,0.77333 c -0.0787,0.13067 -0.15467,0.268 -0.23067,0.404 -0.30667,0.68133 -0.95733,2.076 -1.59467,3.44 -0.148,0.40667 -0.27866,0.81467 -0.40266,1.22267 0.0427,0.11733 0.0667,0.24666 0.0627,0.396 -0.072,1.888 -0.66133,3.70666 -0.74266,5.57733 -0.0267,0.54933 -0.024,1.096 -0.009,1.64133 l 0.0733,0.064 0.42,3.63734 1.42533,3.78 -0.556,1.12933 5.06267,6.89467 2.31333,6.36 h -5.30933 l -5.344,-1.85334 c -0.11467,0.007 -0.24134,-0.009 -0.376,-0.056 -0.34,-0.11866 -0.65867,-0.256 -0.97467,-0.41333 l -0.32933,-0.11467 0.009,-0.048 c -0.032,-0.0147 -0.06,-0.0267 -0.092,-0.044 -0.49067,-0.28666 -0.59067,-0.88533 -0.34933,-1.352 -0.7,-1.768 -0.84934,-3.71866 -0.97334,-5.61866 -0.41733,-0.69334 -0.9,-1.38534 -1.46133,-2.12667 -0.55333,-0.736 -1.08,-1.46533 -1.57333,-2.216 -0.568,-0.48267 -1.80934,-2.04133 -3.17734,-3.86 -2.064,-2.48267 -4.27466,-4.83067 -6.11466,-7.48667 h -1.572 c 1.32533,1.904 2.97466,3.556 4.324,5.456 0.66,0.928 1.296,1.86534 1.952,2.78267 1.288,1.184 2.532,2.40267 3.40933,3.96267 0.028,0.0533 0.04,0.10133 0.06,0.14933 0.06,0.0573 0.10933,0.11333 0.16933,0.16667 0.3,0.276 0.364,0.604 0.284,0.9 l 2.03867,3.376 c 0,0 0.47067,5.22933 0,5.116 l -4.60533,-1.124 -0.60667,-0.64667 c -2.48,-2.22 -4.60133,-5.04133 -6.56267,-7.716 -1.01333,-1.38133 -2.01333,-2.93067 -2.55733,-4.59867 l -0.556,0.36934 c -0.092,0.504 0.0573,1.18266 0.26267,1.988 0.30533,1.19066 0.6,2.44133 1.17866,3.528 1.556,2.15066 3.252,4.192 5.124,6.072 0.50934,0.508 0.29867,1.172 -0.144,1.50666 0.0773,0.11734 0.15467,0.23867 0.22934,0.35467 l -2.89734,0.98267 -3.88933,-1.34534 c -2.43733,0.14134 -4.84133,0.50934 -7.28,-0.076 -0.036,-0.008 -0.064,-0.028 -0.0987,-0.0427 -1.176,0.38933 -2.296,0.9 -3.21067,1.528 -1.51467,1.044 -2.28,2.748 -2.76133,4.51733 0.36133,-0.16667 0.74266,-0.24933 1.14,-0.292 0.63733,-2.644 3.11733,-4.04267 5.68,-4.10533 0.548,-0.0133 1.20133,-0.0627 1.72933,0.136 0.372,0.13866 0.384,0.184 0.53333,0.136 0.068,-0.10667 0.192,-0.18 0.352,-0.148 0.016,0.004 0.0307,0.004 0.0467,0.007 1.50533,-0.51333 2.71467,-0.164 4.268,-0.24266 0.16933,-0.008 0.27466,0.11333 0.308,0.25466 0.28,0.0133 0.56133,0.036 0.84266,0.0813 0.003,0 0.003,0 0.005,-10e-4 0,10e-4 0,10e-4 0,10e-4 0.028,0.005 0.0573,0.005 0.0867,0.012 0.39734,0.0707 -5.21866,1.424 -6.43999,2.89333 -0.59867,0.724 -1.12667,1.52667 -1.51334,2.39067 -0.0613,0.26933 -0.132,0.55066 -0.20933,0.82133 0.16267,0.15467 0.32133,0.30267 0.484,0.45333 0.22133,-0.13733 0.448,-0.26933 0.668,-0.40666 0.21867,-0.248 0.432,-0.49867 0.65067,-0.69467 0.78533,-0.70933 1.61733,-1.36133 2.35333,-2.12667 0.10133,-0.108 0.224,-0.11466 0.32667,-0.0707 0.38266,-0.192 0.78666,-0.32134 1.22133,-0.38934 0.584,-0.0907 1.24533,-0.29333 1.83866,-0.31066 0.768,-0.168 1.55067,-0.27467 2.35067,-0.33467 0.224,-0.016 0.32667,0.16267 0.312,0.34133 1.22133,-0.0653 2.46133,-0.0827 3.624,-0.28 0.003,-10e-4 0.007,-0.003 0.009,-0.003 l 0.11467,-0.104 c 0.364,-0.0147 0.63867,-0.028 0.748,-0.036 0.12533,-0.0107 0.48933,-0.0173 0.96933,-0.0213 0.212,0.0147 0.332,0.0213 0.332,0.0213 l 0.4,0.12 c 0.28534,0.0587 0.572,0.14533 0.85867,0.25866 l 5.52533,1.65467 1.028,0.47067 -4.272,3.53466 -10.468,4.52267 c 0,0 -11.25333,0.932 -10.99066,1.33066 0.0573,0.0853 0.284,0.19467 0.6,0.31467 0.02,-10e-4 0.0373,-0.005 0.0573,-0.005 4.00667,0.0373 8.056,-0.22134 11.92933,-1.35467 3.97867,-1.16533 7.59734,-3.09733 11.396,-4.73866 1.952,-0.844 4.44134,-2.72534 6.65467,-1.78267 1.024,0.43333 1.95467,0.98933 2.94667,1.37467 h 3.692 c 1.58666,2.12799 3.59866,4.79066 4.20133,6.03333 1.86533,3.888 4.09867,8.368 5.592,13.152 0.372,1.19333 -2.29733,8.99466 -3.304,10.03333 -1.00933,1.02267 -2.016,1.968 -3.00533,2.93733 0,0 -17.832,20.62534 -18.76134,21.49467 -3.544,3.54133 -5.872,6.588 -7.544,8.616 -0.96933,1.19867 -2.45066,4.772 -3.49866,7.49067 -0.71067,0.86933 -1.30267,1.65866 -1.89867,2.34933 -0.312,0.364 -0.624,0.708 -0.90533,0.972 -0.14667,0.144 -0.276,0.248 -0.40133,0.34933 -0.0307,0.028 0,0.016 -0.012,0.032 l -0.0573,0.0493 c -0.152,0.132 -0.396,0.18133 -0.62933,0.0987 -0.0693,-0.0253 -0.084,-0.0267 -0.21733,-0.116 -0.14,-0.0787 -0.352,-0.28133 -0.54134,-0.428 -0.49866,-0.464 -1.004,-0.932 -1.51333,-1.40666 -0.64,-0.56134 -1.356,-1.19867 -2.42,-1.768 -1.05733,-0.55467 -2.424,-0.95334 -3.744,-0.89867 -0.636,0.028 -1.24667,0.124 -1.84133,0.26533 l -0.54134,0.15734 c -0.344,0.11866 -0.68133,0.25333 -1.01466,0.4 -1.04667,0.51466 -1.63734,0.94133 -2.14134,1.23733 -0.484,0.264 -0.53333,0.30533 -0.80133,0.36133 -0.116,0.004 -0.228,0.0307 -0.36,-0.008 l -0.25733,-0.0333 -0.33867,-0.11067 c -0.94933,-0.28666 -2.228,-1.11866 -3.85067,-1.89866 -1.56533,-0.68667 -2.996,-1.33334 -4.576,-1.84667 -6.20666,-2.13867 -12.37866,-2.988 -17.82266,-4.468 -1.35067,-0.36267 -2.72667,-0.79333 -4.16934,-1.14933 -1.436,-0.35467 -2.98666,-0.628 -4.612,-0.51334 -1.62,0.0933 -3.272,0.71334 -4.472,1.66667 -1.236,0.95333 -2.00133,2.08 -2.684,3.04 -0.344,0.496 -0.71066,0.97067 -1.016,1.45333 -0.296,0.48534 -0.58133,0.95867 -0.864,1.42134 -0.57466,0.92533 -1.06133,1.788 -1.53866,2.60133 -0.93334,1.636 -1.82267,2.91733 -2.53067,4.15333 -0.68933,1.13067 -1.276,1.99067 -1.68533,2.50534 -0.19734,0.25333 -0.35067,0.40533 -0.40134,0.45466 0.007,0.005 0.0253,0.0373 0.104,0.188 0.084,0.21067 0.136,0.23334 0.16,0.30667 0.0507,0.132 0.0253,0.216 0.0253,0.216 v 1.07733 c 0,0 0.10133,0.004 0.304,-0.048 0.264,-0.072 0.32,-0.13333 0.496,-0.23866 0.24933,-0.18134 0.496,-0.416 0.76533,-0.708 0.536,-0.58934 1.212,-1.44534 2.016,-2.57334 0.71067,-1.068 1.79467,-2.42533 2.84667,-3.99733 0.532,-0.77867 1.09733,-1.624 1.69733,-2.456 0.29867,-0.42133 0.60933,-0.85467 0.924,-1.29867 0.32,-0.43466 0.68,-0.83466 1.03067,-1.26666 0.716,-0.88134 1.416,-1.72 2.22266,-2.23867 0.816,-0.53733 1.71334,-0.78933 2.75067,-0.78533 2.09467,-0.0107 4.61333,1.1 7.42933,2.08133 5.63334,1.95467 11.72534,3.276 17.092,5.58933 1.23467,0.49467 2.46534,1.15467 3.60667,1.75467 -0.75867,0.24133 -1.56267,0.49467 -2.416,0.76267 -0.96933,0.29333 -2.01067,0.51333 -3.08267,0.792 -0.536,0.13333 -1.08266,0.268 -1.63333,0.40533 -0.55867,0.10133 -1.11867,0.20133 -1.68667,0.304 -0.568,0.10133 -1.14133,0.20133 -1.71466,0.304 l -0.868,0.15467 c -0.28534,0.0347 -0.54,0.068 -0.83867,0.0893 -2.30133,0.21867 -5.04533,0.22133 -7.44133,1.58933 -1.192,0.67867 -2.104,1.70934 -2.66134,2.86267 -0.55333,1.212 -0.58133,2.30533 -0.66533,3.20933 -0.0653,0.90934 -0.12667,1.67067 -0.30533,2.22134 -0.172,0.552 -0.44667,0.85466 -0.768,1.06266 -0.65467,0.40934 -1.27067,0.432 -1.23867,0.46 l 0.18667,1.48667 c 0,0 0.17066,-0.0253 0.492,-0.076 0.31333,-0.048 0.808,-0.148 1.40133,-0.476 0.59733,-0.29733 1.268,-0.98267 1.58667,-1.828 0.344,-0.83333 0.46533,-1.73867 0.604,-2.62533 0.136,-0.87867 0.28666,-1.792 0.672,-2.448 0.404,-0.66934 1.04533,-1.32267 1.86533,-1.69067 1.66533,-0.80933 3.95067,-0.73867 6.42267,-0.74133 0.30266,0 0.65066,-0.0133 0.96533,-0.0293 l 0.92667,-0.0907 c 0.616,-0.0587 1.228,-0.11734 1.83866,-0.176 0.60934,-0.0613 1.21467,-0.12267 1.81067,-0.184 0.58933,-0.0973 1.16933,-0.19467 1.74133,-0.28934 1.14267,-0.20133 2.25867,-0.352 3.29867,-0.57733 1.036,-0.24 2.01867,-0.468 2.92267,-0.676 1.456,-0.29733 2.672,-0.70133 3.64133,-0.99867 0.83333,0.308 1.90133,0.528 2.948,0.528 1.24267,-0.0213 2.632,-0.50533 3.46667,-0.932 0.81066,-0.41466 1.47866,-0.78 1.76933,-0.88266 0.0107,0.008 0.0107,0.003 0.008,-0.0187 l 0.51867,-0.11067 c 0.12,-10e-4 0.23866,-0.004 0.32266,-10e-4 0.14,0.028 0.18134,0.08 0.37734,0.192 0.18533,0.12133 0.52933,0.44 0.90266,0.82933 0.0333,0.0347 0.064,0.0693 0.0987,0.104 -0.81067,0.0747 -1.644,0.15734 -2.50267,0.27467 -0.46,0.084 -0.77733,0.11867 -1.55733,0.32133 -0.332,0.0907 -0.68,0.14134 -0.992,0.26534 l -0.92133,0.396 c -0.26534,0.16666 -0.49867,0.36133 -0.73467,0.54933 -0.17867,0.23867 -0.38,0.456 -0.49733,0.75467 -0.244,0.58533 -0.17467,1.18533 -0.0133,1.764 0.14134,0.29733 0.23467,0.59333 0.41067,0.88533 0.176,0.27867 0.37067,0.61733 0.52533,0.84 l 0.76534,1.14 c 0.39333,0.62133 0.70266,1.252 0.952,1.90533 l -0.0293,0.152 c 0.47467,1.05467 0.64934,2.14134 0.43467,3.26267 -0.22667,1.12133 -0.80933,2.25867 -1.548,3.36267 -0.36267,0.55466 -0.772,1.10533 -1.184,1.65866 l -0.32667,0.43467 c -0.176,0.256 -0.208,0.32533 -0.31733,0.49333 l -0.544,0.86267 c -0.73733,1.12533 -1.58533,2.10533 -2.57467,2.96 l 0.89067,1.20533 c 1.21733,-0.86533 2.29733,-1.92533 3.19733,-3.06933 l 0.65067,-0.852 c 0.0933,-0.11733 0.25333,-0.34267 0.28133,-0.364 l 0.336,-0.37467 c 0.47067,-0.528 0.94534,-1.06 1.40134,-1.63866 0.90933,-1.13867 1.78933,-2.44667 2.27066,-4.05334 0.22667,-0.80133 0.32934,-1.664 0.29334,-2.52 -0.0293,-0.864 -0.24134,-1.684 -0.496,-2.47333 0.016,0.048 0.12,0.068 0.22266,0.0853 -0.51333,-0.83733 -0.86266,-1.71866 -1.27866,-2.528 l -0.516,-0.94933 c -0.0907,-0.17467 -0.10534,-0.228 -0.14534,-0.34 -0.0293,-0.0947 -0.0547,-0.20133 0.0133,-0.28533 0.0693,-0.0853 0.192,-0.10267 0.28933,-0.12267 0.248,-0.0293 0.20267,0.005 1.17067,-0.088 0.74533,-0.0627 1.55066,-0.0293 2.32133,-0.052 l 2.49467,-0.012 c 0.58533,-0.0267 1.19066,-0.0773 1.79066,-0.12267 1.92,0.82534 4.11867,0.82534 5.964,0.02 0.25867,-0.12 0.51867,-0.244 0.772,-0.376 0.25467,-0.13466 0.544,-0.31733 0.768,-0.46133 0.37867,-0.25067 0.74,-0.51067 1.04667,-0.76533 0.64266,-0.512 1.16266,-1.01467 1.64266,-1.496 0.57867,-0.58267 1.08134,-1.136 1.53467,-1.63067 -0.0227,0.0827 -0.048,0.15467 -0.0707,0.24133 0.032,0.83467 0.15867,1.24134 0.29067,1.80534 0.192,0.53733 0.53467,1.10533 1.05733,1.73466 0.264,0.30534 0.608,0.66667 1.06134,1.00267 l 1.26133,1.01467 0.61333,0.49333 c -0.007,0.003 -0.0133,0.004 -0.02,0.005 -0.40933,0.11067 -0.80933,0.2 -1.276,0.36934 -0.44666,0.15866 -0.93733,0.33866 -1.48,0.67733 -0.524,0.3 -1.14,0.84933 -1.508,1.51333 -0.384,0.66667 -0.52,1.324 -0.58666,1.83334 -0.0787,0.536 -0.1,0.98666 -0.136,1.432 -0.0307,0.44 -0.0653,0.856 -0.11467,1.28666 -0.0533,0.45467 -0.11733,0.83734 -0.18133,1.216 -0.23334,1.52934 -1.03067,2.688 -2.23734,3.61734 -1.216,0.91466 -2.672,1.59866 -3.89066,2.36 -1.224,0.752 -2.20933,1.564 -2.75733,2.268 -0.30667,0.316 -0.46534,0.63866 -0.608,0.824 -0.132,0.196 -0.20134,0.3 -0.20134,0.3 l 1.25734,0.81466 c 0,0 0.0667,-0.0787 0.19066,-0.224 0.136,-0.136 0.276,-0.37866 0.556,-0.608 0.49067,-0.51066 1.348,-1.08666 2.512,-1.648 1.15867,-0.57733 2.684,-1.08533 4.32,-2.056 0.79733,-0.52 1.65333,-1.13466 2.31333,-2.01333 0.668,-0.848 1.18667,-1.87733 1.46,-2.88133 0.144,-0.508 0.27734,-1.012 0.372,-1.45334 0.104,-0.464 0.19334,-0.944 0.27334,-1.392 0.14533,-0.88533 0.33333,-1.72933 0.49333,-1.80933 0.0733,-0.0667 0.108,-0.0947 0.308,-0.17467 0.16667,-0.0773 0.44533,-0.15866 0.744,-0.224 0.27867,-0.0747 0.62933,-0.116 0.93733,-0.16533 0.16534,-0.0213 0.32934,-0.0413 0.48934,-0.0587 0.0173,-10e-4 0.0787,0.008 0.16666,0.024 0.78134,0.084 1.47867,0.15734 2.08934,0.224 l 0.40266,0.656 c 0.97734,1.91067 1.96134,3.84134 2.58534,5.65067 0.132,0.44267 0.312,0.90933 0.38133,1.31333 0.12667,0.41334 0.15467,0.868 0.192,1.088 0.0773,0.47734 -0.0827,0.95867 -0.412,1.33334 -0.348,0.44 -1.22133,1.03066 -2.16133,1.632 -0.46267,0.30933 -1.03334,0.648 -1.51467,1.07466 l -1.45733,1.236 c -1.856,1.81867 -3.17067,4.104 -3.97867,6.42267 0.0227,-0.0493 0.112,-0.076 0.2,-0.1 -0.372,0.43067 -0.59467,1.00667 -0.716,1.492 l -0.32,1.36133 c -0.10133,0.39867 -0.18533,0.84534 -0.28533,1.06534 -0.0933,0.27866 -0.18667,0.572 -0.40134,0.78933 -0.188,0.22533 -0.44933,0.41867 -0.68666,0.57067 -0.46267,0.26666 -1.07334,0.536 -1.58,0.79333 -1.06134,0.53067 -1.956,1.09067 -2.62934,1.87333 -0.512,0.44934 -0.81733,1.08934 -0.84,1.76667 -0.0173,0.68933 0.28934,1.30533 0.67867,1.81467 0.75467,1.03866 2.01333,1.852 3.044,2.73866 l 0.14267,0.14534 c 0.50666,0.33466 0.79333,0.61333 1.01466,1.06533 l 1.70267,-0.68 c -0.244,-0.82 -0.88667,-1.59733 -1.46,-2.06133 0.06,0.056 0.16,0.0573 0.25867,0.0573 -0.71467,-0.60133 -1.328,-1.04933 -1.74,-1.668 -0.20134,-0.29867 -0.35334,-0.66 -0.25734,-1.03867 0.096,-0.372 0.38934,-0.692 0.72267,-0.9 0.23867,-0.50933 0.908,-0.67066 1.50667,-0.85066 0.32133,-0.0987 0.556,-0.15734 0.90266,-0.3 0.60134,-0.27334 1.13867,-0.58934 1.62,-1.02 0.244,-0.20267 0.46267,-0.444 0.644,-0.704 0.164,-0.27334 0.32534,-0.55467 0.47734,-0.84 0.35333,-0.61867 0.48666,-1.07334 0.68,-1.55067 l 0.28133,-0.74 c 0.592,1.42667 1.484,2.80133 2.428,4.056 1.63867,2.144 3.50267,4.024 4.91333,5.40267 1.40667,1.36133 2.344,2.26666 2.344,2.26666 l 0.668,-0.60133 c 0,0 -0.86133,-0.99067 -2.14933,-2.47467 -1.272,-1.47733 -2.932,-3.48133 -4.29467,-5.62533 -1.35866,-2.11467 -2.35066,-4.50667 -2.18933,-6.02133 0.12133,-1.48534 1.02267,-1.96134 0.96533,-2.00267 l -0.044,-0.044 c 0.388,-0.432 0.79734,-0.844 1.248,-1.21067 l 1.172,-0.80266 c 0.376,-0.28134 0.792,-0.46934 1.27867,-0.73067 0.96933,-0.52533 2.08133,-1.00133 3.34267,-2.128 1.29733,-1.15333 2.15333,-2.85333 2.19733,-4.61867 0.028,-0.89866 0.003,-1.55466 -0.10267,-2.236 -0.0667,-0.70533 -0.224,-1.30266 -0.356,-1.94133 -0.596,-2.47467 -1.46,-4.608 -2.29733,-6.752 l -0.84267,-1.76933 c -0.28933,-0.58534 -0.65066,-1.11867 -0.98,-1.68 -0.316,-0.56934 -0.72933,-1.068 -1.11066,-1.59334 l -0.292,-0.39066 c -0.0453,-0.0653 0.009,-0.008 -0.003,-0.0293 l -0.092,-0.152 c -0.10533,-0.20933 -0.23467,-0.32933 -0.30933,-0.44933 -0.032,-0.06 -0.0867,-0.11467 -0.04,-0.2 0.068,-0.0827 0.192,-0.12267 0.29866,-0.14667 0.22534,-0.048 0.424,-0.044 0.584,-0.0293 0.08,0.007 0.15334,0.0187 0.21334,0.0333 l 0.0853,0.028 c 0.0147,0.003 0.02,0.008 0.04,0.012 0.0173,10e-4 0.22533,-0.0227 0.32533,-0.0333 0.42,-0.0453 0.848,-0.0627 1.27334,-0.096 0.24266,0.54133 0.50266,1.09867 0.804,1.692 0.16,0.33733 0.35333,0.69733 0.56133,1.068 0.20267,0.368 0.38667,0.72133 0.696,1.204 0.144,0.224 0.28667,0.45067 0.432,0.68 0.14,0.19067 0.268,0.336 0.40267,0.50933 0.27066,0.33334 0.54266,0.672 0.82133,1.016 0.54667,0.69734 1.13733,1.388 1.768,2.07067 0.62,0.69467 1.24667,1.40933 1.97467,2.09333 0.71066,0.68667 1.39733,1.41867 2.20933,2.064 1.63067,1.42534 3.06533,2.44667 4.28667,3.65734 1.2,1.19866 2.152,2.41866 2.736,3.976 0.10933,0.36533 0.28666,0.632 0.36133,1.09866 0.0973,0.432 0.19467,0.824 0.29867,1.38934 l 0.15333,0.784 c 0.06,0.272 0.156,0.59333 0.23333,0.88133 0.0827,0.28667 0.16534,0.616 0.272,0.948 0.16267,0.36267 0.336,0.71067 0.49867,1.01867 0.72,1.204 1.61067,2.064 2.49333,2.79333 0.888,0.72933 1.796,1.29467 2.69334,1.80133 0.003,0.001 0.004,0.003 0.007,0.004 0.0587,0.312 0.11067,0.66 0.168,1.048 l 0.0547,0.32534 c 0.0173,0.08 0.0427,0.28533 0.0467,0.26 0.0173,0.044 0.0253,0.0853 -0.007,0.18266 -0.08,0.26267 -0.33333,0.69334 -0.532,1.17734 -0.27867,0.596 -0.35067,1.384 -0.23867,1.98133 0.21734,0.644 0.92,0.85867 1.532,1.01467 0.54934,0.13733 0.60667,0.12533 0.80934,0.24533 0.18133,0.11067 0.22666,0.324 0.21866,0.508 0.008,0.328 -0.304,0.84667 -0.51066,1.104 -0.124,0.156 -0.22,0.27867 -0.28667,0.364 -0.0253,0.04 -0.052,0.076 -0.0707,0.10533 -0.0187,0.0387 -0.003,-0.009 -0.048,0.0933 -0.036,0.0867 -0.0453,0.18666 -0.0333,0.26133 -0.0173,0.116 0.16933,0.34133 0.30133,0.36933 0.128,0.0453 0.172,0.0307 0.172,0.0347 v -0.472 c 0.007,-0.004 0.0147,-0.007 0.0253,-0.008 0.0667,-0.009 0.072,0.0587 0.336,0.196 0.04,0.0187 -0.003,0.0213 0.0267,0.004 0.0733,-0.0693 0.18134,-0.17467 0.31467,-0.30667 0.27733,-0.328 0.756,-0.704 0.96933,-1.704 0.068,-0.46 0.028,-1.032 -0.38,-1.432 -0.344,-0.404 -1.09466,-0.652 -1.33866,-0.75066 -0.15734,-0.0827 -0.36667,-0.13067 -0.37867,-0.33067 0.04,-0.204 0.0813,-0.30267 0.212,-0.50667 0.17867,-0.32266 0.43467,-0.628 0.71333,-1.164 0.14267,-0.30266 0.26,-0.68933 0.25067,-1.07066 -0.005,-0.12667 -0.0107,-0.24934 -0.016,-0.37334 0.99867,0.452 1.98133,0.848 2.92933,1.20667 0.83867,0.30933 1.652,0.59333 2.44,0.86 1.04934,0.33867 1.80534,0.40933 2.588,0.53733 3.02534,0.404 5.456,0.776 6.83734,1.41467 1.412,0.676 1.11333,1.08933 1.19066,1.09333 l 1.83467,0.08 c -0.0253,0.007 0.0853,-0.40933 -0.172,-1.12133 -0.256,-0.724 -0.972,-1.436 -1.84933,-1.94133 -1.76534,-1.044 -4.34667,-1.67467 -7.26134,-2.40934 -0.69733,-0.18266 -1.50533,-0.39333 -1.98533,-0.62666 -0.732,-0.34 -1.484,-0.69867 -2.23733,-1.07467 -1.5,-0.76267 -3.048,-1.61467 -4.46134,-2.628 -1.40266,-0.98 -2.704,-2.23733 -3.19866,-3.36133 -0.0387,-0.14534 -0.076,-0.25067 -0.108,-0.34667 l -0.0733,-0.51333 c -0.0267,-0.19734 -0.064,-0.36534 -0.0893,-0.584 l -0.0573,-0.70934 c -0.0293,-0.43333 -0.10134,-1.036 -0.16667,-1.6 -0.028,-0.54266 -0.24,-1.224 -0.37867,-1.83466 -0.57866,-2.33067 -1.91066,-4.56534 -3.348,-6.324 -1.43066,-1.76267 -3.05466,-3.21467 -4.14266,-4.42667 -0.61734,-0.60267 -1.13334,-1.30133 -1.668,-1.944 -0.54267,-0.62933 -1.02134,-1.316 -1.49067,-1.97467 -0.48133,-0.65333 -0.92533,-1.29733 -1.316,-1.93866 -0.204,-0.31467 -0.404,-0.624 -0.6,-0.92934 -0.092,-0.14933 -0.204,-0.31066 -0.27867,-0.444 l -0.136,-0.316 c -0.084,-0.16533 -0.212,-0.48666 -0.32666,-0.76933 -0.11067,-0.268 -0.22,-0.53867 -0.32,-0.824 1.20266,-0.34667 2.476,-0.696 3.696,-0.88667 0.236,-0.0267 0.47866,-0.052 0.72533,-0.08 0.2,-10e-4 0.40533,-0.004 0.61333,-0.007 0.33867,0.0413 0.608,0.052 0.76,0.13866 0.04,0.0187 0.092,0.0293 0.14934,0.036 0.0347,0.0453 0.0747,0.084 0.12533,0.11734 0.11467,0.0267 0.20267,0.20533 0.32,0.34666 0.136,0.0933 0.22267,0.40934 0.34267,0.64134 0.12133,0.20266 0.24666,0.588 0.37066,0.95466 0.24534,0.72 0.45734,1.56134 0.72534,2.51467 0.31733,1.008 0.63866,2.14133 1.356,3.30667 0.30933,0.588 0.75333,1.108 1.19866,1.62 0.432,0.52933 0.96534,0.87866 1.45867,1.30266 0.232,0.212 0.568,0.37334 0.852,0.55334 0.308,0.16666 0.56933,0.35733 0.93067,0.48 0.34133,0.132 0.68533,0.25733 1.02933,0.37066 0.34933,0.0773 0.70267,0.14267 1.056,0.2 1.39067,0.15467 2.43867,-0.008 3.24,-0.0453 0.87067,-0.0573 1.312,-0.028 1.73067,0.052 0.44666,0.0827 0.828,0.384 1.04933,0.784 0.204,0.288 0.48133,1.11333 0.932,2.15467 0.848,1.92933 2.04133,3.35066 2.85467,4.58666 0.83466,1.18267 1.384,2.49467 1.964,3.80134 0.568,1.30533 1.14933,2.58133 1.872,3.65333 0.71333,1.07733 1.58933,1.908 2.39066,2.42133 0.38134,0.284 0.78,0.444 1.09467,0.62534 0.33333,0.13333 0.62,0.244 0.852,0.33333 l 0.0867,0.0333 0.0373,0.0147 0.0947,0.032 0.02,0.004 c 0.06,0.0133 0.11466,0.0253 0.164,0.0373 0.11066,0.0187 0.17466,0.036 0.344,0.036 l 0.10266,-0.004 c 0.12134,-0.005 0.348,-0.072 0.48134,-0.17466 0.0893,-0.0907 0.0787,0.0107 0.304,-0.34934 0.0853,-0.164 0.12933,-0.43733 0.0667,-0.656 -0.06,-0.22133 -0.172,-0.35733 -0.25333,-0.43866 -0.0933,-0.0827 -0.14,-0.11067 -0.22,-0.15467 -0.17867,-0.0907 -0.212,-0.084 -0.252,-0.096 -0.0467,-0.008 -0.0867,-0.0173 -0.124,-0.0253 -0.036,-0.003 -0.0587,-0.004 -0.0867,-0.007 l -0.052,-0.028 c -0.172,-0.0907 -0.38266,-0.20267 -0.62933,-0.33733 -0.21733,-0.17067 -0.504,-0.31467 -0.75467,-0.55867 -0.536,-0.44667 -1.08,-1.08933 -1.53333,-1.992 -0.46533,-0.89867 -0.84267,-2.04267 -1.248,-3.388 -0.08,-0.26 -0.16667,-0.54 -0.252,-0.81867 0.684,-0.0187 1.348,-0.028 1.98667,0.0267 l 1.01066,0.148 c 0.30534,0.1 0.63334,0.176 0.94,0.28667 0.292,0.17733 0.532,0.25066 0.89067,0.50133 l 1.288,1.17333 c 0.436,-0.23866 0.872,-0.68533 1.312,-1.13466 l 0.84933,-0.82934 c 0.52934,-0.496 1.07467,-0.97466 1.64534,-1.41733 0.568,-0.44133 1.15733,-0.85467 1.76933,-1.18933 0.60933,-0.32934 1.268,-0.58534 1.85467,-0.57334 l 0.10933,-0.892 c -0.91333,-0.128 -1.72267,0.132 -2.46,0.416 -0.73867,0.3 -1.428,0.67334 -2.09067,1.07467 -0.664,0.40267 -1.29866,0.84 -1.91733,1.29867 l -0.832,0.62933 c -0.092,0.0507 -0.16667,0.0893 -0.22533,0.11333 -0.10134,0.096 -0.192,-0.0267 -0.27067,-0.12933 0.0173,-0.008 -0.14533,-0.11067 -0.21733,-0.16533 l -0.27867,-0.19467 -0.56533,-0.384 c -0.396,-0.20533 -0.81334,-0.36667 -1.224,-0.544 -0.41467,-0.12533 -0.83334,-0.22667 -1.252,-0.33867 -1.116,-0.22266 -2.196,-0.29866 -3.21334,-0.38533 -0.16933,-0.4 -0.35866,-0.80267 -0.57333,-1.204 -0.80267,-1.55867 -1.664,-2.924 -2.06133,-4.308 -0.10134,-0.37867 -0.18267,-0.608 -0.32134,-1.15467 -0.104,-0.42133 -0.31733,-1.14133 -0.58666,-1.73733 -0.52267,-1.24533 -1.512,-2.32133 -2.81067,-2.864 -1.296,-0.576 -2.75467,-0.76533 -3.75333,-0.80667 -1.072,-0.0533 -1.91867,-0.072 -2.39334,-0.21333 -0.108,-0.0427 -0.21466,-0.08 -0.32133,-0.108 -0.0947,-0.064 -0.18267,-0.12 -0.27467,-0.168 -0.0947,-0.0227 -0.19466,-0.15067 -0.28933,-0.22 -0.0973,-0.0933 -0.20533,-0.12267 -0.29867,-0.256 -0.41866,-0.448 -0.74,-0.828 -0.912,-1.33333 -0.21866,-0.44534 -0.33466,-1.12667 -0.476,-1.87067 -0.12933,-0.81733 -0.248,-1.744 -0.45333,-2.732 -0.10267,-0.488 -0.188,-0.95467 -0.38933,-1.55733 -0.192,-0.576 -0.30134,-1.112 -0.656,-1.724 -0.30934,-0.59334 -0.59734,-1.17334 -1.09867,-1.72267 -0.22933,-0.27333 -0.46533,-0.54133 -0.704,-0.8 -0.17733,-0.148 -0.36133,-0.288 -0.544,-0.42933 0.009,-10e-4 0.0187,-10e-4 0.0293,-0.003 0.952,-0.08 1.932,-0.16133 2.94134,-0.24533 1.01066,-0.0653 2.13866,-0.22134 3.28933,-0.39334 1.16667,-0.136 2.25333,-0.40266 3.30267,-0.61866 2.07866,-0.44934 3.992,-0.79867 5.55866,-0.6 l 0.59334,0.0693 0.54,0.172 c 0.37466,0.0627 0.73733,0.284 1.10933,0.48267 0.24133,0.10666 0.588,0.31866 0.94133,0.53866 -0.14,0.13334 -0.27333,0.26667 -0.38,0.41467 -0.19333,0.304 -0.408,0.58133 -0.57066,0.89333 l -0.248,0.45867 c -0.088,0.15333 -0.172,0.30133 -0.176,0.41867 0.37866,0.48933 1.11466,0.97466 1.68533,1.37333 0.304,0.25067 0.60667,0.50533 0.89467,0.79467 0.57866,0.56933 1.132,1.19333 1.628,1.86 1.004,1.32133 1.872,2.79466 2.39466,4.32133 0.25467,0.74533 0.41734,1.57333 0.32934,2.20533 -0.036,0.232 -0.236,0.644 -0.432,1.00267 l -0.632,1.14267 c -0.21467,0.392 -0.42934,0.79333 -0.616,1.232 -0.0467,0.10133 -0.092,0.23333 -0.13734,0.35066 -0.044,0.144 -0.104,0.292 -0.12933,0.44134 -0.0773,0.296 -0.0947,0.59866 -0.04,0.88266 0.0853,0.59067 0.62133,1.012 1.19733,1.1 0.61467,0.116 1.12134,0.0533 1.56267,-0.003 l -0.1,-0.89334 c -0.428,0.0253 -0.81733,0.0227 -1.048,-0.0413 -0.26267,-0.0453 -0.51467,-0.24933 -0.50533,-0.532 0,-0.13467 0.0333,-0.264 0.0773,-0.38133 0.02,-0.0627 0.048,-0.116 0.0747,-0.18 l 0.12266,-0.24934 c 0.18267,-0.35466 0.404,-0.71333 0.63867,-1.07466 l 0.72267,-1.10534 c 0.236,-0.40133 0.49333,-0.74933 0.67466,-1.376 0.232,-1.10933 0.0533,-2.06133 -0.172,-2.98533 -0.48533,-1.83467 -1.32133,-3.48267 -2.32,-5.02533 -0.496,-0.77867 -1.06,-1.51334 -1.68533,-2.224 -0.304,-0.356 -0.648,-0.692 -1.00133,-1.02534 -0.128,-0.13333 -0.124,-0.14133 -0.14267,-0.17333 -0.0813,-0.028 0.003,-0.08 0.0347,-0.1 l 0.0747,-0.0307 0.29467,-0.15066 c 0.93467,0.612 1.956,1.25866 3.11867,1.79866 0.64666,0.26934 1.288,0.54 1.97333,0.71867 l 0.84533,0.24267 c 0.21867,0.0667 0.45067,0.10666 0.66267,0.19066 0.87067,0.27334 1.70267,0.72667 2.652,1.28 0.93733,0.55467 1.99733,1.17734 3.044,1.68 0.344,0.14934 0.692,0.29334 1.03867,0.428 0.37466,0.116 0.8,0.19334 1.19466,0.26 0.0493,0.004 0.0973,10e-4 0.14667,0.004 0.0133,0.092 0.012,0.18267 0.0347,0.272 0.12133,0.44534 0.384,0.86267 0.69066,1.16 0.64,0.58667 1.21067,0.75067 1.72,0.93067 0.51867,0.16933 1,0.28533 1.45867,0.40533 0.46533,0.12 0.88933,0.24534 1.30933,0.38534 0.21334,0.064 0.32534,0.15733 0.79867,0.28666 l 0.63333,0.15334 c 0.812,0.256 1.52134,0.664 2.06267,1.216 l 0.0427,0.10933 c 0.0387,0.0653 0.084,0.116 0.14533,0.16667 0.0347,0.0613 0.04,0.12533 0.084,0.18933 l 0.0187,0.29333 -0.0493,0.39467 c -0.056,0.296 -0.124,0.628 -0.148,1.02933 -0.012,0.42 0.0813,0.92534 0.35067,1.288 0.49333,0.712 1.25467,1.02667 1.856,1.22134 0.61733,0.20133 1.12533,0.36666 1.43067,0.732 l 0.72133,-0.53867 c -0.46267,-0.67733 -1.21467,-0.96667 -1.75333,-1.212 -0.564,-0.24133 -0.988,-0.536 -1.172,-0.89733 -0.0907,-0.144 -0.0773,-0.29067 -0.0547,-0.48534 0.0373,-0.21866 0.12133,-0.5 0.21467,-0.816 l 0.12133,-0.54 c 0.0227,-0.212 0.0333,-0.43733 0.032,-0.66266 -0.052,-0.24 -0.10133,-0.50267 -0.19867,-0.728 -0.124,-0.21067 -0.264,-0.42 -0.412,-0.61734 0.0307,0.032 0.10267,0.028 0.176,0.02 -0.86533,-0.83733 -1.83466,-1.48666 -2.83733,-1.912 l -0.76,-0.26666 -0.53467,-0.272 c -0.48266,-0.21734 -0.968,-0.41334 -1.428,-0.57734 -0.46266,-0.172 -0.912,-0.33066 -1.29866,-0.50266 -0.384,-0.156 -0.73467,-0.38 -0.78267,-0.48134 -0.0173,-0.0133 -0.016,-0.0253 -0.0147,-0.036 0.85334,-0.20666 1.376,-0.32133 2.12134,-0.25866 0.432,0.04 0.86133,0.076 1.28133,0.11333 0.424,0.0333 0.9,0.16667 1.336,0.24267 0.92933,0.18533 1.832,0.364 2.69467,0.536 0.42533,0.10133 0.9,0.14933 1.368,0.18666 0.46133,0.0387 0.908,0.0773 1.34666,0.116 0.94134,0.0547 1.61467,-0.0787 2.31734,-0.0907 1.364,-0.0693 2.54266,-0.0533 3.43466,0.0747 0.89734,0.10934 1.476,0.38534 1.58134,0.51067 0.092,0.0907 0.0773,0.15733 0.104,0.156 h 1.83466 c 0,0 -0.005,-0.128 -0.044,-0.376 -0.0107,-0.26 -0.148,-0.604 -0.42266,-1.00667"
         style="fill:#040606;fill-opacity:1;fill-rule:nonzero;stroke:none;stroke-width:0.133333" /><path
         d="m 459.68024,282.64881 a 7.00912,7.00912 0 1 1 0,-14.01824 7.00912,7.00912 0 0 1 0,14.01824 z"
         fill="#4d64ae"
         id="path2-3"
         style="stroke-width:2.51223" /><path
         d="m 530.27794,234.10854 a 4.8594038,4.8594038 0 1 1 0,-9.7188 4.8594038,4.8594038 0 0 1 0,9.7188 z"
         fill="#4d64ae"
         id="path2-3-2"
         style="stroke-width:1.74172" /><path
         d="m 467.41807,236.29849 a 10.997663,10.997663 0 1 1 0.0237,-21.99139 10.997671,10.997671 0 0 1 -0.0237,21.99533 z"
         fill="#ca3c32"
         id="path4-7"
         style="font-variation-settings:normal;vector-effect:none;fill:#ca3c32;fill-opacity:1;stroke-width:3.94181;stroke-linecap:butt;stroke-linejoin:miter;stroke-miterlimit:4;stroke-dasharray:none;stroke-dashoffset:0;stroke-opacity:1;-inkscape-stroke:none;stop-color:#000000" /><path
         d="m 534.77931,279.90886 a 7.6849891,7.6849891 0 1 1 0.0165,-15.36722 7.6849935,7.6849935 0 0 1 -0.0165,15.36997 z"
         fill="#9259a3"
         id="path5-5"
         style="stroke-width:2.75448" /><path
         d="m 511.16657,227.92734 a 8.181314,8.181314 0 1 1 0,-16.36262 8.181314,8.181314 0 0 1 0,16.36262 z"
         fill="#399746"
         id="path6-3"
         style="stroke-width:2.93237" /><path
         d="m 466.65782,244.15116 a 2.7484053,2.7484053 0 1 1 0,-5.4968 2.7484053,2.7484053 0 0 1 0,5.4968 z"
         fill="#399746"
         id="path6-3-69"
         style="stroke-width:0.985091" /><path
         d="m 542.74958,249.43132 a 2.8878028,2.8878028 0 1 1 0,-5.7756 2.8878028,2.8878028 0 0 1 0,5.7756 z"
         fill="#399746"
         id="path6-3-5"
         style="stroke-width:1.03505" /><path
         d="m 551.16291,251.90705 a 3.5501194,3.5501194 0 1 1 0.008,-7.09898 3.5501273,3.5501273 0 0 1 -0.008,7.10025 z"
         fill="#ca3c32"
         id="path4-7-9"
         style="stroke-width:1.27244" /><path
         d="m 493.25099,226.50173 a 2.9368605,2.9368605 0 1 1 0.006,-5.87267 2.9368622,2.9368622 0 0 1 -0.006,5.87372 z"
         fill="#9259a3"
         id="path5-5-7"
         style="stroke-width:1.05264" /><path
         d="m 461.36557,266.66588 a 2.5527931,2.5527931 0 1 1 0.005,-5.10467 2.5527979,2.5527979 0 0 1 -0.005,5.10559 z"
         fill="#9259a3"
         id="path5-5-7-2"
         style="stroke-width:0.914981" /><path
         d="m 451.41698,266.29261 a 4.7494069,4.7494069 0 1 1 0.0103,-9.49711 4.7494105,4.7494105 0 0 1 -0.0103,9.49881 z"
         fill="#ca3c32"
         id="path4-7-93"
         style="stroke-width:1.7023" /></g></g></svg>
