<?xml version="1.0" encoding="UTF-8"?>
<!-- Created with Inkscape (http://www.inkscape.org/) -->
<svg width="188" height="101.33" version="1.1" viewBox="0 0 188 101.33" xmlns="http://www.w3.org/2000/svg">
 <g>
  <path transform="scale(1.3333)" d="m79.086 17.234c-5.797 0-10.5 4.711-10.5 10.508 0 5.805 4.703 10.508 10.5 10.508 5.793 0 10.496-4.707 10.496-10.508s-4.703-10.508-10.496-10.508zm0.848 3.637c3.523 0 6.394 2.848 6.394 6.375s-2.871 6.399-6.394 6.399c-3.524 0-6.372-2.872-6.372-6.399s2.852-6.375 6.372-6.375z" fill-rule="evenodd"/>
  <path transform="scale(1.3333)" d="m43.648 22.578c-6.347 0-11.492 4.758-11.492 10.633 0 5.871 5.145 10.633 11.492 10.633 6.344 0 11.489-4.762 11.489-10.633 0-5.875-5.145-10.633-11.489-10.633zm-0.836 3.004c4.266 0 7.719 3.18 7.719 7.125s-3.453 7.145-7.719 7.145c-4.261 0-7.722-3.2-7.722-7.145 0-3.941 3.461-7.125 7.722-7.125z" fill-rule="evenodd"/>
  <g>
   <path transform="scale(1.3333)" d="m108.53 49.102c-1.437-0.805-2.941-1.821-4.504-3.043-1.57-1.211-3.082-2.524-4.531-3.946-1.426-1.414-2.711-2.867-3.851-4.359-1.141-1.512-2-2.965-2.582-4.356-0.555-1.386-0.758-2.656-0.61-3.816 0.153-1.176 1.367-3.547 4.031-6.082 5.133-3.852 12.657-4.02 12.657-4.02l-0.352 6.387s-4.437 0.891-6.004 1.672c-1.539 0.766-2.683 1.711-3.429 2.836-0.719 1.113-1.047 2.375-0.989 3.785 0.082 1.418 0.524 2.934 1.317 4.543 0.8 1.606 1.941 3.285 3.422 5.039 1.484 1.77 3.293 3.555 5.425 5.36z"/>
   <path transform="scale(1.3333)" d="M 16.688,43.844 11.555,34.125 0,76 6.098,8.902 17.395,30.051 23.234,19.547 40.566,64.777 21.949,33.336 Z"/>
   <path transform="scale(1.3333)" d="m84.738 49.539-29.851 1.137 7.633-50.676 3.371 25.039-8.457 22.832 34.957-7.508z"/>
   <path transform="scale(1.3333)" d="m112.37 17.773-2.004 40.805 6.039-19.652 12.578 5.015-1.433 24.508 13.453-43.996-10.953-2.664-0.676 15.543-11.863-2.125 4.738-15z"/>
  </g>
 </g>
</svg>
