<?xml version="1.0" encoding="UTF-8" standalone="no"?>
<!-- Created with Inkscape (http://www.inkscape.org/) -->

<svg
   width="10cm"
   height="5.3898935cm"
   version="1.1"
   viewBox="0 0 377.95277 203.7125"
   id="svg7"
   sodipodi:docname="moloch-logo.svg"
   inkscape:export-filename="moloch-logo.png"
   inkscape:export-xdpi="203.20236"
   inkscape:export-ydpi="203.20236"
   inkscape:version="1.3.2 (091e20ef0f, 2023-11-25)"
   xmlns:inkscape="http://www.inkscape.org/namespaces/inkscape"
   xmlns:sodipodi="http://sodipodi.sourceforge.net/DTD/sodipodi-0.dtd"
   xmlns="http://www.w3.org/2000/svg"
   xmlns:svg="http://www.w3.org/2000/svg">
  <defs
     id="defs7" />
  <sodipodi:namedview
     id="namedview7"
     pagecolor="#ffffff"
     bordercolor="#666666"
     borderopacity="1.0"
     inkscape:showpageshadow="2"
     inkscape:pageopacity="0.0"
     inkscape:pagecheckerboard="0"
     inkscape:deskcolor="#d1d1d1"
     inkscape:zoom="1.3575628"
     inkscape:cx="144.74469"
     inkscape:cy="54.877758"
     inkscape:window-width="1920"
     inkscape:window-height="1120"
     inkscape:window-x="1080"
     inkscape:window-y="340"
     inkscape:window-maximized="1"
     inkscape:current-layer="svg7"
     inkscape:document-units="cm" />
  <g
     id="g7"
     transform="scale(2.0103711)">
    <path
       transform="scale(1.3333)"
       d="m 79.086,17.234 c -5.797,0 -10.5,4.711 -10.5,10.508 0,5.805 4.703,10.508 10.5,10.508 5.793,0 10.496,-4.707 10.496,-10.508 0,-5.801 -4.703,-10.508 -10.496,-10.508 z m 0.848,3.637 c 3.523,0 6.394,2.848 6.394,6.375 0,3.527 -2.871,6.399 -6.394,6.399 -3.524,0 -6.372,-2.872 -6.372,-6.399 0,-3.527 2.852,-6.375 6.372,-6.375 z"
       fill-rule="evenodd"
       id="path1" />
    <path
       transform="scale(1.3333)"
       d="m 43.648,22.578 c -6.347,0 -11.492,4.758 -11.492,10.633 0,5.871 5.145,10.633 11.492,10.633 6.344,0 11.489,-4.762 11.489,-10.633 0,-5.875 -5.145,-10.633 -11.489,-10.633 z m -0.836,3.004 c 4.266,0 7.719,3.18 7.719,7.125 0,3.945 -3.453,7.145 -7.719,7.145 -4.261,0 -7.722,-3.2 -7.722,-7.145 0,-3.941 3.461,-7.125 7.722,-7.125 z"
       fill-rule="evenodd"
       id="path2" />
    <g
       id="g6">
      <path
         transform="scale(1.3333)"
         d="m 108.53,49.102 c -1.437,-0.805 -2.941,-1.821 -4.504,-3.043 -1.57,-1.211 -3.082,-2.524 -4.531,-3.946 -1.426,-1.414 -2.711,-2.867 -3.851,-4.359 -1.141,-1.512 -2,-2.965 -2.582,-4.356 -0.555,-1.386 -0.758,-2.656 -0.61,-3.816 0.153,-1.176 1.367,-3.547 4.031,-6.082 5.133,-3.852 12.657,-4.02 12.657,-4.02 l -0.352,6.387 c 0,0 -4.437,0.891 -6.004,1.672 -1.539,0.766 -2.683,1.711 -3.429,2.836 -0.719,1.113 -1.047,2.375 -0.989,3.785 0.082,1.418 0.524,2.934 1.317,4.543 0.8,1.606 1.941,3.285 3.422,5.039 1.484,1.77 3.293,3.555 5.425,5.36 z"
         id="path3" />
      <path
         transform="scale(1.3333)"
         d="M 16.688,43.844 11.555,34.125 0,76 6.098,8.902 17.395,30.051 23.234,19.547 40.566,64.777 21.949,33.336 Z"
         id="path4" />
      <path
         transform="scale(1.3333)"
         d="M 84.738,49.539 54.887,50.676 62.52,0 65.891,25.039 57.434,47.871 92.391,40.363 Z"
         id="path5" />
      <path
         transform="scale(1.3333)"
         d="m 112.37,17.773 -2.004,40.805 6.039,-19.652 12.578,5.015 -1.433,24.508 13.453,-43.996 -10.953,-2.664 -0.676,15.543 -11.863,-2.125 4.738,-15 z"
         id="path6" />
    </g>
  </g>
</svg>
