<?xml version="1.0" encoding="UTF-8" standalone="no"?>
<!-- Created with Inkscape (http://www.inkscape.org/) -->

<svg
   width="414.99994"
   height="414.99994"
   viewBox="0 0 109.80206 109.80206"
   version="1.1"
   id="svg30005"
   inkscape:version="1.2.2 (b0a8486541, 2022-12-01)"
   sodipodi:docname="slope-alt-title.svg"
   xml:space="preserve"
   xmlns:inkscape="http://www.inkscape.org/namespaces/inkscape"
   xmlns:sodipodi="http://sodipodi.sourceforge.net/DTD/sodipodi-0.dtd"
   xmlns="http://www.w3.org/2000/svg"
   xmlns:svg="http://www.w3.org/2000/svg"><sodipodi:namedview
     id="namedview30007"
     pagecolor="#ffffff"
     bordercolor="#666666"
     borderopacity="1.0"
     inkscape:showpageshadow="2"
     inkscape:pageopacity="0.0"
     inkscape:pagecheckerboard="0"
     inkscape:deskcolor="#d1d1d1"
     inkscape:document-units="mm"
     showgrid="false"
     inkscape:zoom="0.87876921"
     inkscape:cx="322.6103"
     inkscape:cy="307.24791"
     inkscape:window-width="1920"
     inkscape:window-height="1172"
     inkscape:window-x="1080"
     inkscape:window-y="229"
     inkscape:window-maximized="1"
     inkscape:current-layer="text188922" /><defs
     id="defs30002" /><g
     inkscape:label="Layer 1"
     inkscape:groupmode="layer"
     id="layer1"
     transform="translate(-86.617903,-95.013868)" /><g
     inkscape:groupmode="layer"
     id="layer2"
     inkscape:label="Square"
     style="fill:#081d58;fill-opacity:1"
     transform="translate(-57.710243,-17.598961)"><rect
       style="fill:#081d58;fill-opacity:1;stroke:#ffffff;stroke-width:3.96875;stroke-linecap:round;stroke-dasharray:none;stroke-opacity:1"
       id="rect30904"
       width="105.83332"
       height="105.83332"
       x="59.694618"
       y="19.583336" /></g><g
     inkscape:groupmode="layer"
     id="layer3"
     inkscape:label="Octagon"
     style="fill:#1d91c0;fill-opacity:1"
     transform="translate(-57.710243,-17.598961)"><path
       sodipodi:type="star"
       style="fill:#1d91c0;fill-opacity:1;stroke:#ffffff;stroke-width:9.98507164;stroke-linecap:round;stroke-linejoin:miter;stroke-dasharray:none;stroke-opacity:1"
       id="path185213"
       inkscape:flatsided="true"
       sodipodi:sides="8"
       sodipodi:cx="-368.96057"
       sodipodi:cy="187.17821"
       sodipodi:r1="132.89059"
       sodipodi:r2="122.77489"
       sodipodi:arg1="1.5665891"
       sodipodi:arg2="1.9592881"
       inkscape:rounded="0"
       inkscape:randomized="0"
       d="m -368.40147,320.06763 -94.13077,-38.52707 -39.31775,-93.80325 38.52707,-94.130769 93.80325,-39.317752 94.13076,38.527067 39.31776,93.803254 -38.52707,94.13076 z"
       transform="matrix(0.39746814,0,0,0.39746857,259.2614,-1.8974436)" /><text
       xml:space="preserve"
       style="font-style:normal;font-weight:normal;font-size:10.5833px;line-height:1.25;font-family:sans-serif;fill:#000000;fill-opacity:1;stroke:none;stroke-width:0.264583"
       x="112.61133"
       y="77.960587"
       id="text188916"><tspan
         sodipodi:role="line"
         id="tspan188914"
         style="stroke-width:0.264583" /></text></g><g
     inkscape:groupmode="layer"
     id="layer4"
     inkscape:label="Triangle"
     style="fill:#c7e9b4;fill-opacity:1"
     transform="translate(-57.710243,-17.598961)"><rect
       style="fill:#c7e9b4;fill-opacity:1;stroke:#ffffff;stroke-width:3.96875;stroke-linecap:round;stroke-dasharray:none;stroke-opacity:1;stroke-linejoin:bevel"
       id="rect32421"
       width="74.835495"
       height="74.835495"
       x="93.475739"
       y="-65.780739"
       transform="rotate(45)" /></g><g
     inkscape:groupmode="layer"
     id="layer6"
     inkscape:label="Text" /><g
     aria-label="SLOPE"
     id="text188922"
     style="font-size:22.5778px;line-height:1.25;stroke-width:0.264583"><path
       d="m 28.575339,62.509764 c 3.657604,0 5.734762,-2.212624 5.734762,-4.696182 0,-2.032002 -1.038579,-3.296359 -2.867381,-4.018849 l -1.783646,-0.699912 c -1.332091,-0.519289 -2.167469,-0.767645 -2.167469,-1.467557 0,-0.654756 0.587023,-0.993423 1.53529,-0.993423 0.857957,0 1.85138,0.361245 2.844803,1.038579 L 33.9037,49.143706 c -1.33209,-1.219201 -3.115736,-1.85138 -4.876805,-1.85138 -3.206048,0 -5.463828,2.05458 -5.463828,4.560716 0,2.122313 1.377246,3.454404 2.957692,4.10916 l 1.828802,0.745067 c 1.241779,0.496712 1.986847,0.72249 1.986847,1.422402 0,0.654756 -0.496712,1.038579 -1.670758,1.038579 -1.174045,0 -2.573869,-0.451556 -3.612448,-1.309513 L 23.0212,60.387451 c 1.580446,1.490135 3.612448,2.122313 5.554139,2.122313 z"
       style="font-weight:900;font-family:'Source Sans 3';-inkscape-font-specification:'Source Sans 3 Heavy';text-align:center;text-anchor:middle"
       id="path1768" /><path
       d="m 36.658173,62.238831 h 9.437521 V 58.987627 H 40.541555 V 47.56326 h -3.883382 z"
       style="font-weight:900;font-family:'Source Sans 3';-inkscape-font-specification:'Source Sans 3 Heavy';text-align:center;text-anchor:middle"
       id="path1770" /><path
       d="m 53.907608,62.509764 c 4.064004,0 6.818495,-2.844803 6.818495,-7.676452 0,-4.809072 -2.754491,-7.540986 -6.818495,-7.540986 -4.064005,0 -6.818496,2.709337 -6.818496,7.540986 0,4.831649 2.754491,7.676452 6.818496,7.676452 z m 0,-3.341514 c -1.761069,0 -2.844803,-1.670758 -2.844803,-4.334938 0,-2.664181 1.083734,-4.199471 2.844803,-4.199471 1.761068,0 2.844802,1.53529 2.844802,4.199471 0,2.66418 -1.083734,4.334938 -2.844802,4.334938 z"
       style="font-weight:900;font-family:'Source Sans 3';-inkscape-font-specification:'Source Sans 3 Heavy';text-align:center;text-anchor:middle"
       id="path1772" /><path
       d="m 63.345115,62.238831 h 3.883382 v -4.651027 h 1.580446 c 3.070581,0 5.870228,-1.557869 5.870228,-5.147739 0,-3.702759 -2.754491,-4.876805 -5.960539,-4.876805 h -5.373517 z m 3.883382,-7.721608 v -3.883382 h 1.309512 c 1.490135,0 2.348092,0.496712 2.348092,1.806224 0,1.309512 -0.72249,2.077158 -2.25778,2.077158 z"
       style="font-weight:900;font-family:'Source Sans 3';-inkscape-font-specification:'Source Sans 3 Heavy';text-align:center;text-anchor:middle"
       id="path1774" /><path
       d="m 77.072414,62.238831 h 9.708454 v -3.251204 h -5.825072 v -2.619025 h 4.786493 V 53.117399 H 80.955796 V 50.814463 H 86.55509 V 47.56326 h -9.482676 z"
       style="font-weight:900;font-family:'Source Sans 3';-inkscape-font-specification:'Source Sans 3 Heavy';text-align:center;text-anchor:middle"
       id="path1776" /></g></svg>
