<?xml version="1.0" encoding="UTF-8"?>
<!-- Created with Inkscape (http://www.inkscape.org/) -->
<svg width="329.81" height="375.02" version="1.1" viewBox="0 0 87.263 99.224" xmlns="http://www.w3.org/2000/svg">
 <g transform="translate(-9.4044 -2.7537)">
  <path d="m17.53 80.258s-0.3125-6.2438-0.3125-8.1254c0-5.8596 2.1876-12.969 6.7972-17.97 0 0-3.047 9.5317-1.3282 14.298 0 0 1.6375-18.342 16.407-26.954 0 0-5.5472 8.9848-4.7659 13.829 0 0 6.4066-18.673 24.22-23.595 0 0-6.2503 8.9849-7.9691 14.532 0 0 10.782-14.688 14.298-16.407 0 0 29.215-8.5618 30.939-27.111 0 0 3.2033 16.72-2.8126 28.205-6.0159 11.485-24.611 16.251-24.611 16.251s18.829-2.1095 25.392-11.798c0 0-3.3096 13.218-13.779 18.214-8.9548 4.2726-13.633 3.7283-19.046 4.0611-6.7266 0.4137-11.633 1.7607-15.234 3.4298 0 0 7.9786-1.25 12.51-1.1719 4.5315 0.078 15.704 0.8594 21.485-2.7345 0 0-5.7582 10.348-21.329 11.563-11.016 0.8594-16.251-1.0157-27.736 5.6253 0 0 7.5004-3.0471 16.094-2.5783 8.5942 0.4688 11.641-0.2344 11.641-0.2344s-5.7816 4.5315-13.594 5.7816c-7.8129 1.25-18.126 3.7502-23.048 9.8442-4.9222 6.0941-5.3128 10.469-5.3128 10.469l-7.0316 4.2971s7.786-22.72 29.611-39.768c13.692-10.695 39.064-24.845 41.877-29.064 0 0-15.97 10.338-29.814 16.833-14.109 6.6197-28.158 19.887-33.549 30.278z" fill="#ac4a5e"/>
 </g>
</svg>
