<?xml version="1.0" standalone="no"?>
<!DOCTYPE svg PUBLIC "-//W3C//DTD SVG 20010904//EN"
 "http://www.w3.org/TR/2001/REC-SVG-20010904/DTD/svg10.dtd">
<svg version="1.0" xmlns="http://www.w3.org/2000/svg"
 width="700.000000pt" height="700.000000pt" viewBox="0 0 700.000000 700.000000"
 preserveAspectRatio="xMidYMid meet">
<metadata>
Created by potrace 1.11, written by Peter Selinger 2001-2013
</metadata>
<g transform="translate(0.000000,700.000000) scale(0.100000,-0.100000)"
fill="#000000" stroke="none">
<path d="M3110 5934 c-212 -119 -414 -232 -450 -251 -36 -20 -216 -120 -400
-223 -184 -103 -362 -202 -395 -220 -33 -18 -76 -42 -95 -53 -39 -22 -555
-309 -610 -339 -44 -24 -100 -56 -165 -92 -98 -55 -391 -219 -455 -254 -36
-19 -69 -38 -75 -42 -5 -4 -39 -23 -75 -43 -36 -19 -134 -73 -219 -120 l-153
-85 48 -28 c27 -15 87 -49 132 -76 46 -26 86 -48 88 -48 2 0 97 -52 211 -117
114 -64 233 -129 263 -146 30 -16 80 -44 110 -62 30 -18 69 -39 85 -47 17 -8
282 -156 590 -328 308 -172 594 -331 635 -353 41 -22 108 -60 148 -84 41 -24
75 -43 77 -43 2 0 32 -16 67 -36 34 -20 88 -50 118 -67 30 -17 247 -137 483
-268 l427 -238 163 91 c250 140 319 178 323 178 3 0 21 10 42 23 20 13 62 37
92 54 30 16 96 52 145 80 50 28 122 67 160 88 39 21 75 41 80 45 6 4 40 24 78
44 37 20 138 76 225 125 86 48 184 103 217 121 33 18 65 36 70 40 6 4 44 25
85 47 107 58 920 512 948 529 l22 14 0 -794 0 -795 -106 -288 c-58 -158 -118
-324 -135 -368 -16 -44 -50 -136 -75 -205 -25 -69 -56 -152 -69 -185 -12 -33
-22 -61 -20 -63 1 -2 28 13 58 32 31 20 59 36 62 36 3 0 27 10 53 22 147 68
377 86 547 43 95 -24 165 -53 254 -105 44 -26 53 -29 47 -14 -22 56 -236 636
-256 692 -11 31 -48 134 -82 227 l-63 170 0 852 c1 537 4 856 10 862 6 5 107
63 225 129 118 65 233 129 255 142 22 12 57 32 78 42 39 21 56 38 37 38 -6 0
-27 10 -48 23 -20 13 -66 40 -102 59 -36 20 -85 47 -110 61 -370 206 -1108
617 -1150 640 -30 16 -68 38 -85 47 -16 10 -50 29 -75 42 -25 14 -61 34 -80
45 -19 11 -300 168 -625 348 -324 181 -644 359 -710 395 -66 37 -142 80 -170
95 -50 27 -220 122 -283 157 -18 10 -34 18 -35 18 -1 -1 -175 -98 -387 -216z"/>
<path d="M1533 2348 c4 -594 1 -569 77 -715 49 -92 86 -140 185 -238 174 -172
429 -309 761 -410 103 -32 308 -79 384 -90 157 -21 175 -24 265 -32 105 -10
488 -10 590 0 477 45 878 166 1195 360 168 103 335 278 414 435 61 120 64 157
65 715 l1 509 -77 -43 c-43 -24 -100 -55 -126 -71 -26 -15 -50 -28 -53 -28 -2
0 -21 -10 -42 -23 -20 -13 -68 -41 -107 -62 -82 -45 -231 -127 -295 -163 -100
-56 -809 -450 -860 -479 -30 -16 -107 -59 -170 -95 -171 -97 -230 -128 -240
-128 -6 0 -47 21 -92 46 -46 25 -105 59 -133 74 -27 15 -169 94 -315 175 -146
81 -344 192 -440 245 -96 54 -193 108 -215 120 -22 13 -65 37 -95 53 -30 17
-185 103 -345 192 -159 89 -300 167 -313 174 l-23 12 4 -533z"/>
</g>
</svg>
