<?xml version="1.0" encoding="UTF-8" standalone="no"?>
<!-- Created with Inkscape (http://www.inkscape.org/) -->

<svg
   width="111.2524"
   height="109.78207"
   viewBox="0 0 111.2524 109.78206"
   version="1.1"
   id="svg1"
   xml:space="preserve"
   inkscape:version="1.4.2 (ebf0e940d0, 2025-05-08)"
   sodipodi:docname="logo.svg"
   inkscape:export-filename="logo.png"
   inkscape:export-xdpi="96"
   inkscape:export-ydpi="96"
   xmlns:inkscape="http://www.inkscape.org/namespaces/inkscape"
   xmlns:sodipodi="http://sodipodi.sourceforge.net/DTD/sodipodi-0.dtd"
   xmlns="http://www.w3.org/2000/svg"
   xmlns:svg="http://www.w3.org/2000/svg"><sodipodi:namedview
     id="namedview1"
     pagecolor="#ffffff"
     bordercolor="#000000"
     borderopacity="0.25"
     inkscape:showpageshadow="2"
     inkscape:pageopacity="0.0"
     inkscape:pagecheckerboard="0"
     inkscape:deskcolor="#d1d1d1"
     inkscape:document-units="mm"
     inkscape:zoom="1.8565586"
     inkscape:cx="38.781431"
     inkscape:cy="65.443666"
     inkscape:window-width="1280"
     inkscape:window-height="770"
     inkscape:window-x="0"
     inkscape:window-y="0"
     inkscape:window-maximized="0"
     inkscape:current-layer="layer2" /><defs
     id="defs1" /><g
     inkscape:groupmode="layer"
     id="layer2"
     inkscape:label="Palette"
     transform="translate(-38.355663,-35.074841)"><path
       id="path2"
       style="opacity:1;fill:#000000;stroke-width:1.13385822;stroke-dasharray:none;stroke:#ffffff;stroke-opacity:1"
       d="m 93.934409,35.076263 c -17.060798,0.119866 -39.140794,10.941536 -49.497917,31.07414 -10.647517,20.697084 -7.140583,50.978737 9.172721,66.102577 12.730399,11.80218 31.350041,19.68112 51.977827,3.2397 20.62779,-16.44142 9.40053,-33.65594 8.0517,-42.086128 -1.34883,-8.430185 0.1737,-19.702394 17.19781,-4.721158 17.02411,14.981236 24.95339,-10.116279 13.15113,-26.976648 -6.06974,-9.104599 -16.18602,-22.255543 -40.80216,-25.964824 -3.07702,-0.46366 -6.170174,-0.689305 -9.251111,-0.667659 z m 7.321511,64.136138 c 1.16324,0.0161 2.21067,0.24652 3.0825,0.67799 3.66636,1.814909 3.45096,6.693779 -0.48111,10.897529 -3.932356,4.20394 -10.09266,6.14069 -13.759359,4.32583 -3.666351,-1.81491 -3.450957,-6.69378 0.481107,-10.89752 2.879926,-3.07876 7.093896,-5.053689 10.676862,-5.003829 z"
       sodipodi:nodetypes="ssaczzcsscccccc" /></g><g
     inkscape:groupmode="layer"
     id="layer3"
     inkscape:label="Colors"
     transform="translate(-1.1247393,4.9865002e-4)"><circle
       style="opacity:1;fill:#f7c3f8;fill-opacity:1;stroke:none;stroke-width:0;stroke-dasharray:none;stroke-opacity:1"
       id="path17"
       cx="32.085052"
       cy="89.787918"
       r="8.3454571" /><circle
       style="fill:#d5f3df;fill-opacity:1;stroke:none;stroke-width:0;stroke-dasharray:none;stroke-opacity:1"
       id="path17-2"
       cx="17.054543"
       cy="66.67411"
       r="8.3454571" /><circle
       style="fill:#7e8be7;fill-opacity:1;stroke:none;stroke-width:0;stroke-dasharray:none;stroke-opacity:1"
       id="path17-4"
       cx="22.85321"
       cy="38.113403"
       r="8.3454571" /><circle
       style="fill:#eaed78;fill-opacity:1;stroke:none;stroke-width:0;stroke-dasharray:none;stroke-opacity:1"
       id="path17-6"
       cx="44.838963"
       cy="19.442043"
       r="8.3454571" /><circle
       style="fill:#ed7e86;fill-opacity:1;stroke:none;stroke-width:0;stroke-dasharray:none;stroke-opacity:1"
       id="path17-1"
       cx="71.256142"
       cy="21.430359"
       r="8.3454571" /></g></svg>
